<svg id="visual" viewBox="0 0 1700 1350" width="1700" height="1350" xmlns="http://www.w3.org/2000/svg" xmlns:xlink="http://www.w3.org/1999/xlink" version="1.1"><rect x="0" y="0" width="1700" height="1350" fill="#001220"></rect><defs><linearGradient id="grad1_0" x1="20.6%" y1="0%" x2="100%" y2="100%"><stop offset="24.814814814814813%" stop-color="#fbae3c" stop-opacity="1"></stop><stop offset="75.18518518518519%" stop-color="#fbae3c" stop-opacity="1"></stop></linearGradient></defs><defs><linearGradient id="grad1_1" x1="20.6%" y1="0%" x2="100%" y2="100%"><stop offset="24.814814814814813%" stop-color="#fbae3c" stop-opacity="1"></stop><stop offset="75.18518518518519%" stop-color="#96446e" stop-opacity="1"></stop></linearGradient></defs><defs><linearGradient id="grad1_2" x1="20.6%" y1="0%" x2="100%" y2="100%"><stop offset="24.814814814814813%" stop-color="#001220" stop-opacity="1"></stop><stop offset="75.18518518518519%" stop-color="#96446e" stop-opacity="1"></stop></linearGradient></defs><defs><linearGradient id="grad2_0" x1="0%" y1="0%" x2="79.4%" y2="100%"><stop offset="24.814814814814813%" stop-color="#fbae3c" stop-opacity="1"></stop><stop offset="75.18518518518519%" stop-color="#fbae3c" stop-opacity="1"></stop></linearGradient></defs><defs><linearGradient id="grad2_1" x1="0%" y1="0%" x2="79.4%" y2="100%"><stop offset="24.814814814814813%" stop-color="#96446e" stop-opacity="1"></stop><stop offset="75.18518518518519%" stop-color="#fbae3c" stop-opacity="1"></stop></linearGradient></defs><defs><linearGradient id="grad2_2" x1="0%" y1="0%" x2="79.4%" y2="100%"><stop offset="24.814814814814813%" stop-color="#96446e" stop-opacity="1"></stop><stop offset="75.18518518518519%" stop-color="#001220" stop-opacity="1"></stop></linearGradient></defs><g transform="translate(1700, 0)"><path d="M0 976.9C-102.9 913.7 -205.9 850.6 -338.3 816.7C-470.7 782.8 -632.6 778.3 -690.8 690.8C-748.9 603.2 -703.2 432.8 -733.6 303.9C-763.9 174.9 -870.4 87.5 -976.9 0L0 0Z" fill="#3d3056"></path><path d="M0 651.2C-68.6 609.1 -137.2 567 -225.5 544.5C-313.8 521.9 -421.8 518.8 -460.5 460.5C-499.2 402.2 -468.8 288.5 -489 202.6C-509.3 116.6 -580.3 58.3 -651.2 0L0 0Z" fill="#e1685e"></path><path d="M0 325.6C-34.3 304.6 -68.6 283.5 -112.8 272.2C-156.9 260.9 -210.9 259.4 -230.3 230.3C-249.6 201.1 -234.4 144.3 -244.5 101.3C-254.6 58.3 -290.1 29.2 -325.6 0L0 0Z" fill="#fbae3c"></path></g><g transform="translate(0, 1350)"><path d="M0 -976.9C100.5 -907.8 201 -838.7 333.7 -805.6C466.4 -772.5 631.3 -775.4 690.8 -690.8C750.2 -606.1 704.4 -433.9 734.5 -304.2C764.6 -174.5 870.7 -87.3 976.9 0L0 0Z" fill="#3d3056"></path><path d="M0 -651.2C67 -605.2 134 -559.1 222.5 -537.1C310.9 -515 420.8 -516.9 460.5 -460.5C500.2 -404.1 469.6 -289.3 489.7 -202.8C509.7 -116.3 580.5 -58.2 651.2 0L0 0Z" fill="#e1685e"></path><path d="M0 -325.6C33.5 -302.6 67 -279.6 111.2 -268.5C155.5 -257.5 210.4 -258.5 230.3 -230.3C250.1 -202 234.8 -144.6 244.8 -101.4C254.9 -58.2 290.2 -29.1 325.6 0L0 0Z" fill="#fbae3c"></path></g></svg>